<svg width="30" height="30" xmlns="http://www.w3.org/2000/svg">
 <title>orange pin</title>

 <g>
  <title>background</title>
  <rect fill="none" id="canvas_background" height="32" width="32" y="-1" x="-1"/>
 </g>
 <g>
  <title>Layer 1</title>
  <path stroke="null" id="svg_2" clip-rule="evenodd" fill="#E85653" fill-rule="evenodd" stroke-miterlimit="10" stroke-width="37" d="m15.199538,28.992251c-0.63808,-3.1323 -1.763108,-5.739037 -3.125764,-8.154841c-1.010746,-1.791978 -2.181647,-3.446022 -3.26503,-5.183847c-0.361655,-0.580092 -0.673765,-1.19294 -1.021281,-1.79499c-0.694867,-1.20382 -1.258253,-2.599578 -1.222453,-4.410106c0.034977,-1.768984 0.546597,-3.187999 1.284358,-4.348217c1.2134,-1.908266 3.245888,-3.472835 5.972996,-3.884001c2.229742,-0.336175 4.320284,0.231787 5.802786,1.098658c1.211375,0.708397 2.149583,1.654654 2.862621,2.769855c0.744311,1.163971 1.25687,2.539088 1.299829,4.332744c0.022058,0.918951 -0.128385,1.769955 -0.340387,2.47585c-0.214472,0.714503 -0.559468,1.311763 -0.866444,1.949728c-0.599302,1.245332 -1.350527,2.386407 -2.104549,3.528058c-2.245725,3.400758 -4.35355,6.868838 -5.276681,11.621109z"/>
  <circle stroke="null" transform="rotate(90 15.14731502532959,9.506348609924318) " id="svg_4" clip-rule="evenodd" fill="#ffffff" fill-rule="evenodd" cx="15.147315" cy="9.506348" r="4.697927"/>
 </g>
</svg>